<svg xmlns="http://www.w3.org/2000/svg" viewBox="0 0 512 512" fill="none" role="img" aria-label="Almasix">
  <!-- Official Almasix mark (website favicon), filters stripped for JetBrains SVG. -->
  <defs>
    <linearGradient id="almasix-tile" x1="0" y1="0" x2="512" y2="512" gradientUnits="userSpaceOnUse">
      <stop stop-color="#1A1412"/>
      <stop offset="1" stop-color="#0F172A"/>
    </linearGradient>
    <linearGradient id="almasix-left" x1="140.4" y1="88" x2="256.0" y2="372" gradientUnits="userSpaceOnUse">
      <stop stop-color="#FF7A4D"/>
      <stop offset="1" stop-color="#F1511B"/>
    </linearGradient>
    <linearGradient id="almasix-right" x1="256.0" y1="88" x2="343.1" y2="372" gradientUnits="userSpaceOnUse">
      <stop stop-color="#F1511B"/>
      <stop offset="1" stop-color="#B83208"/>
    </linearGradient>
    <linearGradient id="almasix-bar" x1="256" y1="232" x2="256" y2="348" gradientUnits="userSpaceOnUse">
      <stop offset="0" stop-color="#E3F3FB" stop-opacity="0.95"/>
      <stop offset="0.4" stop-color="#6BB0D9" stop-opacity="0.78"/>
      <stop offset="1" stop-color="#4A9BC9" stop-opacity="0.92"/>
    </linearGradient>
    <linearGradient id="almasix-bar-glass" x1="256" y1="232" x2="256" y2="300" gradientUnits="userSpaceOnUse">
      <stop offset="0" stop-color="#FFFFFF" stop-opacity="0.72"/>
      <stop offset="0.5" stop-color="#FFFFFF" stop-opacity="0.32"/>
      <stop offset="1" stop-color="#FFFFFF" stop-opacity="0"/>
    </linearGradient>
    <linearGradient id="almasix-cap" x1="256.0" y1="100" x2="256.0" y2="208" gradientUnits="userSpaceOnUse">
      <stop stop-color="#FFFFFF" stop-opacity="0.2"/>
      <stop offset="1" stop-color="#FFFFFF" stop-opacity="0"/>
    </linearGradient>
  </defs>
  <rect width="512" height="512" rx="112" fill="url(#almasix-tile)"/>
  <g shape-rendering="geometricPrecision">
    <path fill="url(#almasix-left)" d="M256.0 88L140.4 372H197.4L256.0 208Z"/>
    <path fill="url(#almasix-right)" d="M256.0 88L256.0 208L314.6 372H371.6Z"/>
    <path fill="url(#almasix-bar)" d="M182.3 300L256.0 232L329.7 300L256.0 348Z"/>
    <path fill="url(#almasix-bar-glass)" d="M182.3 300L256.0 232L329.7 300L256.0 278Z"/>
    <path fill="url(#almasix-cap)" d="M256.0 108L229.2 168L256.0 208L282.8 168Z"/>
  </g>
</svg>
